<?xml version="1.0" encoding="utf-8"?>
<!-- Generator: Adobe Illustrator 16.0.0, SVG Export Plug-In . SVG Version: 6.00 Build 0)  -->
<!DOCTYPE svg PUBLIC "-//W3C//DTD SVG 1.1//EN" "http://www.w3.org/Graphics/SVG/1.1/DTD/svg11.dtd">
<svg version="1.1" id="Camada_2" xmlns="http://www.w3.org/2000/svg" xmlns:xlink="http://www.w3.org/1999/xlink" x="0px" y="0px"
	 width="76.322px" height="100.313px" viewBox="0 0 76.322 100.313" enable-background="new 0 0 76.322 100.313"
	 xml:space="preserve">
<g id="XMLID_37_">
	<circle id="XMLID_32_" fill="#E5A865" cx="-934.031" cy="744.937" r="2.921"/>
	<path id="XMLID_36_" fill="#E5A865" d="M-936.108,746.948c0,0-2.985-3.568-12.462-3.697c-9.478-0.195-18.499,7.98-18.499,7.98
		s5.452-9.801,18.108-11.813c12.656-1.947,17.006,3.439,17.006,3.439L-936.108,746.948z"/>
</g>
<g>
	<path fill="#3A3A3A" d="M72.443,75.41c-1.387-12.687-3.924-18.383-4.425-19.269c-0.458-0.859-11.601-4.444-12.242-4.65l-0.001-0.01
		l-8.764-5.499l-0.001-0.019l-0.414-2.715v-2.844c1.89-2.115,3.69-5.117,4.945-9.38c1.104-0.486,2.051-2.182,2.273-4.307
		c0.156-1.503-0.092-2.867-0.593-3.794c0.001,0,0.014-0.002,0.014-0.002v-1.297c-0.079,0.006-0.149,0.008-0.226,0.013
		c0.163-2.725,0.188-6.743-0.716-9.809c-1.505-5.104-7.378-7.937-14.136-7.91l0.003,0.003c-0.001,0-0.002,0-0.004,0
		c-0.001,0-0.002,0-0.004,0l0.003-0.003c-6.726-0.027-12.626,2.805-14.13,7.91c-0.841,2.848-0.881,6.525-0.752,9.218l-0.072,0.636
		c-0.222-0.001-0.453-0.009-0.71-0.031v1.246c-0.534,0.925-0.8,2.333-0.639,3.883c0.227,2.183,1.22,3.917,2.364,4.347
		c1.235,4.146,2.984,7.096,4.827,9.191v2.931l0.028,0.077c-0.017-0.046-0.028-0.077-0.028-0.077l-0.413,2.715l-0.188,3.332
		c-0.004-0.001-0.01-0.002-0.015-0.003c0.013-1.146,0.074-2.261,0.204-3.329l-8.792,5.516l-0.017,0.12
		c-1.995,0.646-11.478,3.749-11.902,4.54c-0.501,0.885-3.038,6.581-4.426,19.269c-1.388,12.687-3.039,24.872-3.039,24.872h11.389
		h0.03h2.625l0.854-12.745l0.044-0.275c-0.01,0.367-0.006,0.665,0.016,0.864c0.206,1.564,0.295,12.187,0.295,12.187h22.423v-0.001
		h22.126c0,0,0.12-10.592,0.298-12.187c0.021-0.184,0.023-0.456,0.018-0.782l0.012,0.044l1.328,12.895h2.183h11.39
		C75.483,100.282,73.828,88.097,72.443,75.41z M35.135,49.998l-0.16,0.283l-0.044,0.012l0.175-0.299L35.135,49.998z M46.699,47.292
		l-0.018,0.005l-0.031-0.539C46.665,46.937,46.685,47.112,46.699,47.292z"/>
	<g id="XMLID_10_">
		
			<ellipse id="XMLID_51_" transform="matrix(0.1038 -0.9946 0.9946 0.1038 20.3456 75.4864)" fill="#F7D8BA" cx="52.06" cy="26.453" rx="4.751" ry="2.567"/>
		
			<ellipse id="XMLID_50_" transform="matrix(0.1036 0.9946 -0.9946 0.1036 48.9644 -1.2889)" fill="#FCE5C8" cx="25.197" cy="26.519" rx="4.75" ry="2.567"/>
		<polygon id="XMLID_17_" fill="#FCE5C8" points="47.386,43.251 29.832,43.251 32.045,49.359 41.339,50.744 45.942,48.325 		"/>
		<path id="XMLID_13_" fill="#8ADFF9" d="M38.596,86.622c0,0,13.011-25.993,12.803-26.556c-0.206-0.591-3.04-12.894-3.04-12.894
			l-12.391,3.159c0,0-4.72-0.591-4.957-0.709c-0.234-0.119-4.307-0.708-4.307-0.708l-0.443,7.996L38.596,86.622z"/>
		<polygon id="XMLID_7_" fill="#E5E5E5" points="12.632,100.282 15.287,100.282 16.142,87.537 18.03,75.881 12.395,78.95 
			10.183,94.175 		"/>
		<polygon id="XMLID_11_" fill="#E5E5E5" points="64.883,100.282 62.7,100.282 61.372,87.388 59.012,78.626 62.7,76.768 
			70.282,87.006 69.722,97.92 		"/>
		<path id="XMLID_4_" fill="#FFFFFF" d="M56.534,51.482c0,0,11.802,3.777,12.272,4.66c0.501,0.885,3.038,6.581,4.425,19.269
			c1.386,12.688,3.04,24.872,3.04,24.872H64.883c0,0-2.271-15.225-4.336-21.509c0,0,0.975,7.76,0.799,9.353
			c-0.18,1.594-0.3,12.186-0.3,12.186h-22.45V86.119l7.61-13.514c0,0,6.992-18.204,6.581-18.379
			C52.374,54.049,56.534,51.482,56.534,51.482z"/>
		<path id="XMLID_3_" fill="#FFFFFF" d="M20.982,51.482c0,0-11.801,3.777-12.273,4.66c-0.502,0.885-3.04,6.581-4.427,19.269
			c-1.387,12.687-3.039,24.872-3.039,24.872h11.418c0,0,2.273-15.225,4.337-21.509c0,0-0.972,7.76-0.797,9.353
			c0.206,1.564,0.295,12.187,0.295,12.187h22.424V86.12l-7.612-13.514c0,0-6.992-18.204-6.579-18.379
			C25.113,53.96,20.982,51.482,20.982,51.482z"/>
		<path id="XMLID_6_" fill="#38B1E0" d="M29.419,45.966l0.413-2.715c0,0,1.33,4.189,7.289,5.34l-4.337,7.405
			c0,0-3.096-5.133-3.57-6.372L29.419,45.966z"/>
		<path id="XMLID_8_" fill="#38B1E0" d="M47.801,45.966l-0.414-2.715c0,0-1.327,4.189-7.286,5.34l4.337,7.405
			c0,0,3.097-5.133,3.569-6.372L47.801,45.966z"/>
		<polygon id="XMLID_5_" fill="#0875AA" points="37.12,48.591 40.07,48.591 42.431,52.573 40.364,54.729 36.825,54.729 
			34.877,52.573 		"/>
		<path id="XMLID_9_" fill="#0875AA" d="M40.364,54.729c0,0,1.653,2.095,1.653,13.158c0,8.202-0.027,10.12-0.027,10.12l-3.424,8.054
			l-3.304-7.968c0,0-0.618-18.821,1.536-23.396"/>
		<path id="XMLID_1_" fill="#E5E5E5" d="M29.419,45.966l-8.791,5.516l-0.561,3.777l3.069,1.208l-2.923,2.626l18.382,26.998
			C38.596,86.091,27.56,61.367,29.419,45.966z"/>
		<path id="XMLID_2_" fill="#E5E5E5" d="M47.771,45.966l8.792,5.516l0.559,3.777l-3.067,1.208l2.921,2.626L38.596,86.091
			C38.596,86.091,49.6,61.367,47.771,45.966z"/>
		<g id="XMLID_12_">
			<g id="XMLID_15_">
				<path id="XMLID_203_" fill="#0875AA" d="M46.414,85.146c-0.147,0-0.296-0.027-0.414-0.06v-0.59
					c0.118,0.027,0.236,0.06,0.325,0.06c0.145,0,0.266-0.06,0.324-0.147c0.06-0.089,0.089-0.235,0.089-0.44v-2.154h0.708v2.154
					c0,0.383-0.089,0.677-0.266,0.883C47.034,85.057,46.768,85.146,46.414,85.146z"/>
				<path id="XMLID_201_" fill="#0875AA" d="M49.571,85.146l-0.797-2.626h-0.03c0.03,0.531,0.03,0.886,0.03,1.063v1.563h-0.619
					v-3.334h0.972l0.799,2.567l0,0l0.825-2.567h0.975v3.334h-0.649v-1.592c0-0.091,0-0.146,0-0.267c0-0.087,0-0.352,0.029-0.767
					h-0.029l-0.855,2.627h-0.649V85.146z"/>
			</g>
			<g id="XMLID_90_">
				<path id="XMLID_91_" fill="#0875AA" d="M46.355,85.619c-0.09,0-0.148,0.029-0.18,0.088c-0.026,0.062-0.059,0.118-0.059,0.206
					c0,0.09,0.03,0.147,0.059,0.208c0.029,0.061,0.09,0.061,0.18,0.061c0.06,0,0.089,0,0.177-0.03v0.059
					c-0.062,0.029-0.117,0.029-0.177,0.029c-0.09,0-0.18-0.029-0.237-0.088s-0.088-0.146-0.088-0.266c0-0.06,0-0.116,0.029-0.178
					c0.028-0.059,0.059-0.088,0.116-0.118c0.062-0.028,0.118-0.028,0.18-0.028c0.06,0,0.146,0,0.177,0.028l-0.028,0.062
					C46.444,85.649,46.384,85.619,46.355,85.619z"/>
				<path id="XMLID_93_" fill="#0875AA" d="M47.506,86.002c0,0.09-0.03,0.146-0.061,0.205c-0.027,0.063-0.089,0.063-0.178,0.063
					c-0.06,0-0.089,0-0.116-0.031c-0.029-0.029-0.062-0.058-0.09-0.088c-0.028-0.028-0.028-0.089-0.028-0.146
					c0-0.09,0.028-0.146,0.059-0.208c0.03-0.059,0.089-0.059,0.178-0.059c0.061,0,0.117,0.03,0.178,0.059
					C47.506,85.825,47.506,85.913,47.506,86.002z M47.122,86.002c0,0.06,0,0.118,0.029,0.146c0.027,0.03,0.059,0.059,0.116,0.059
					c0.061,0,0.089-0.026,0.117-0.059c0.03-0.028,0.03-0.089,0.03-0.146c0-0.06,0-0.119-0.03-0.146
					c-0.028-0.029-0.059-0.062-0.117-0.062c-0.06,0-0.089,0.03-0.116,0.062C47.122,85.883,47.122,85.913,47.122,86.002z"/>
				<path id="XMLID_96_" fill="#0875AA" d="M48.389,86.239v-0.325c0-0.027,0-0.059-0.029-0.088c-0.028-0.03-0.059-0.03-0.089-0.03
					c-0.059,0-0.089,0-0.116,0.03c-0.029,0.029-0.029,0.088-0.029,0.146v0.267h-0.088v-0.502h0.059v0.059l0,0
					c0.029-0.026,0.029-0.059,0.061-0.059c0.029,0,0.06-0.029,0.088-0.029c0.061,0,0.117,0.029,0.146,0.062
					c0.03,0.026,0.06,0.088,0.06,0.145v0.325H48.389L48.389,86.239z"/>
				<path id="XMLID_98_" fill="#0875AA" d="M49.394,86.12c0,0.061-0.03,0.087-0.061,0.117c-0.028,0.03-0.09,0.03-0.147,0.03
					c-0.059,0-0.118,0-0.145-0.03v-0.059c0.026,0,0.06,0.026,0.087,0.026c0.03,0,0.06,0,0.091,0c0.026,0,0.058,0,0.088-0.026
					c0.028,0,0.028-0.03,0.028-0.061c0-0.028,0-0.028-0.028-0.061c-0.03,0-0.062-0.029-0.088-0.06
					c-0.061-0.029-0.091-0.029-0.091-0.06c0-0.031-0.027-0.03-0.061-0.062c0-0.027-0.026-0.027-0.026-0.059
					c0-0.032,0.026-0.089,0.06-0.089c0.027-0.03,0.087-0.03,0.145-0.03c0.062,0,0.118,0,0.148,0.03l-0.03,0.059
					c-0.059-0.027-0.089-0.027-0.145-0.027c-0.031,0-0.061,0-0.091,0.027c-0.027,0-0.027,0.03-0.027,0.062v0.027l0.027,0.029
					c0.03,0,0.06,0.03,0.091,0.03c0.058,0.027,0.088,0.06,0.116,0.06S49.394,86.061,49.394,86.12z"/>
				<path id="XMLID_100_" fill="#0875AA" d="M49.983,85.737v0.324c0,0.03,0,0.061,0.029,0.089c0.029,0.03,0.06,0.03,0.09,0.03
					c0.06,0,0.089,0,0.117-0.03c0.028-0.028,0.028-0.089,0.028-0.146v-0.267h0.089v0.502h-0.06V86.18l0,0
					c-0.029,0.026-0.029,0.059-0.06,0.059c-0.029,0-0.061,0.03-0.089,0.03c-0.061,0-0.118-0.03-0.147-0.063
					c-0.029-0.026-0.059-0.087-0.059-0.146v-0.324H49.983L49.983,85.737z"/>
				<path id="XMLID_102_" fill="#0875AA" d="M51.015,86.239h-0.087v-0.737h0.087V86.239z"/>
				<path id="XMLID_104_" fill="#0875AA" d="M51.753,86.207h0.029h0.03v0.063h-0.03c-0.029,0-0.029,0-0.059,0
					c-0.091,0-0.147-0.063-0.147-0.147v-0.296h-0.06v-0.059l0.061-0.03l0.03-0.117h0.059v0.117h0.147v0.059h-0.147v0.298
					c0,0.028,0,0.059,0.029,0.059C51.696,86.18,51.725,86.207,51.753,86.207z"/>
				<path id="XMLID_106_" fill="#0875AA" d="M52.788,86.002c0,0.09-0.031,0.146-0.061,0.205c-0.029,0.063-0.091,0.063-0.179,0.063
					c-0.06,0-0.088,0-0.118-0.031c-0.028-0.029-0.06-0.058-0.088-0.088c-0.027-0.028-0.027-0.089-0.027-0.146
					c0-0.09,0.027-0.146,0.059-0.208c0.028-0.059,0.088-0.059,0.177-0.059c0.061,0,0.118,0.03,0.179,0.059
					C52.788,85.825,52.788,85.913,52.788,86.002z M52.374,86.002c0,0.06,0,0.118,0.028,0.146c0.028,0.03,0.06,0.059,0.118,0.059
					c0.06,0,0.089-0.026,0.116-0.059c0.03-0.028,0.03-0.089,0.03-0.146c0-0.06,0-0.119-0.03-0.146
					c-0.027-0.029-0.059-0.062-0.116-0.062c-0.06,0-0.09,0.03-0.118,0.062C52.374,85.883,52.374,85.913,52.374,86.002z
					 M52.462,85.649c0.029-0.029,0.029-0.029,0.061-0.062c0.028-0.028,0.028-0.06,0.028-0.06h0.089l0,0c0,0.03-0.028,0.06-0.06,0.09
					c-0.029,0.029-0.06,0.058-0.06,0.058L52.462,85.649L52.462,85.649z"/>
				<path id="XMLID_110_" fill="#0875AA" d="M53.552,85.737c0.029,0,0.029,0,0.061,0v0.059c-0.029,0-0.029,0-0.061,0
					c-0.029,0-0.088,0.03-0.118,0.062c-0.027,0.029-0.059,0.089-0.059,0.117v0.266h-0.089v-0.501h0.06v0.089l0,0
					c0.029-0.03,0.029-0.059,0.061-0.089C53.434,85.707,53.524,85.737,53.552,85.737z"/>
				<path id="XMLID_112_" fill="#0875AA" d="M54.114,85.588c0-0.028,0-0.028,0-0.028h0.029h0.028v0.028v0.03h-0.028h-0.029
					C54.114,85.619,54.114,85.619,54.114,85.588z M54.202,86.239h-0.088v-0.502h0.088V86.239z"/>
				<path id="XMLID_115_" fill="#0875AA" d="M55.235,86.002c0,0.09-0.03,0.146-0.061,0.205c-0.028,0.063-0.089,0.063-0.177,0.063
					c-0.06,0-0.091,0-0.117-0.031c-0.029-0.029-0.062-0.058-0.09-0.088c-0.028-0.028-0.028-0.089-0.028-0.146
					c0-0.09,0.028-0.146,0.059-0.208c0.03-0.059,0.088-0.059,0.179-0.059c0.061,0,0.119,0.03,0.177,0.059
					C55.235,85.825,55.235,85.913,55.235,86.002z M54.852,86.002c0,0.06,0,0.118,0.029,0.146c0.026,0.03,0.06,0.059,0.117,0.059
					c0.061,0,0.088-0.026,0.119-0.059c0.027-0.028,0.027-0.089,0.027-0.146c0-0.06,0-0.119-0.027-0.146
					c-0.031-0.029-0.061-0.062-0.119-0.062c-0.06,0-0.091,0.03-0.117,0.062C54.852,85.883,54.852,85.913,54.852,86.002z"/>
				<path id="XMLID_118_" fill="#0875AA" d="M56.121,86.12c0,0.061-0.031,0.087-0.06,0.117c-0.03,0.03-0.09,0.03-0.148,0.03
					c-0.058,0-0.116,0-0.146-0.03v-0.059c0.029,0,0.059,0.026,0.09,0.026c0.028,0,0.058,0,0.088,0c0.027,0,0.06,0,0.088-0.026
					c0.03,0,0.03-0.03,0.03-0.061c0-0.028,0-0.028-0.03-0.061c-0.028,0-0.061-0.029-0.088-0.06c-0.06-0.029-0.088-0.029-0.088-0.06
					c0-0.031-0.031-0.03-0.061-0.062c0-0.027-0.029-0.027-0.029-0.059c0-0.032,0.029-0.089,0.059-0.089
					c0.031-0.03,0.089-0.03,0.146-0.03c0.06,0,0.117,0,0.148,0.03l-0.031,0.059c-0.059-0.027-0.087-0.027-0.145-0.027
					c-0.03,0-0.06,0-0.088,0.027c-0.031,0-0.031,0.03-0.031,0.062v0.027l0.031,0.029c0.028,0,0.058,0.03,0.088,0.03
					c0.06,0.027,0.088,0.06,0.118,0.06C56.089,86.002,56.121,86.061,56.121,86.12z"/>
			</g>
			<g id="XMLID_14_">
				<path id="XMLID_190_" fill="#00B597" d="M56.003,83.023c-0.353-0.53-1.062-0.649-1.564-0.297
					c-0.236,0.147-0.414,0.413-0.472,0.649c-0.089,0.323-0.414,1.798-0.414,1.798s1.917-0.383,2.152-0.558
					C56.209,84.233,56.356,83.524,56.003,83.023z M54.733,83.878c-0.146-0.209-0.089-0.503,0.119-0.648
					c0.207-0.148,0.501-0.092,0.648,0.117c0.146,0.206,0.088,0.502-0.116,0.646C55.177,84.143,54.883,84.085,54.733,83.878z"/>
				<path id="XMLID_181_" fill="#0875AA" d="M52.403,83.081c0,0.089,0.089,0.354,0.207,0.59c0.323,0.622,0.943,1.478,0.943,1.478
					s0.737-1.153,0.945-1.565c0.089-0.177,0.205-0.531,0.178-0.797c-0.061-0.62-0.65-1.063-1.269-1.004
					C52.788,81.842,52.316,82.461,52.403,83.081z M53.052,82.934c-0.03-0.266,0.146-0.472,0.413-0.502
					c0.266-0.028,0.471,0.147,0.502,0.413c0.029,0.268-0.147,0.472-0.414,0.503C53.316,83.347,53.083,83.17,53.052,82.934z"/>
			</g>
		</g>
		<rect id="XMLID_16_" x="29.832" y="39.623" fill="#FCE5C8" width="17.554" height="3.628"/>
		<path id="XMLID_18_" fill="#F7D8BA" d="M38.508,45.404c0,0,0.058,0,0.146,0.03c1.415-0.178,12.627-2.068,14.987-20.83
			l-1.326-11.89l-4.251-3.717h-9.559v36.407H38.508z"/>
		<path id="XMLID_19_" fill="#FCE5C8" d="M38.802,45.404c0,0-0.029,0-0.147,0.03c-1.387-0.149-12.629-2.035-14.989-20.83
			l1.329-11.89l4.247-3.688h9.562L38.802,45.404L38.802,45.404z"/>
		<ellipse id="XMLID_29_" fill="#E5A865" cx="38.948" cy="9.233" rx="11.184" ry="5.31"/>
		<path id="XMLID_30_" fill="#E5A865" d="M29.213,10.471c0,0-3.806,2.153-3.335,13.573l-0.266,0.856l-1.241-0.208
			c0,0-1.062-7.761,0.443-12.863c1.504-5.104,7.405-7.937,14.131-7.91L29.213,10.471z"/>
		<path id="XMLID_31_" fill="#E5A865" d="M48.684,10.471c0,0,3.807,2.153,3.335,13.573l0.267,0.856l1.239-0.208
			c0,0,1.063-7.761-0.441-12.863c-1.505-5.104-7.377-7.937-14.135-7.91L48.684,10.471z"/>
		<g id="XMLID_27_">
			<g id="XMLID_38_">
				<circle id="XMLID_40_" fill="#E5A865" cx="35.055" cy="19.264" r="0.561"/>
				<path id="XMLID_39_" fill="#E5A865" d="M34.642,19.647c0,0-0.563-0.676-2.391-0.708c-1.8-0.029-3.541,1.536-3.541,1.536
					s1.032-1.89,3.48-2.273c2.45-0.383,3.275,0.679,3.275,0.679L34.642,19.647z"/>
			</g>
			<g id="XMLID_41_">
				<circle id="XMLID_43_" fill="#C68646" cx="43.081" cy="19.264" r="0.561"/>
				<path id="XMLID_42_" fill="#C68646" d="M43.464,19.647c0,0,0.559-0.676,2.391-0.708c1.828-0.029,3.541,1.536,3.541,1.536
					s-1.034-1.89-3.482-2.273c-2.447-0.383-3.274,0.679-3.274,0.679L43.464,19.647z"/>
			</g>
		</g>
		<path id="XMLID_49_" fill="#3A3A3A" d="M37.06,21.89c0,0-2.743-1.063-5.576-1.063c-5.016,0-5.428,1.063-8.204,0.826v1.299
			c0,0,2.153,0.295,2.302,0.974c0.149,0.677-0.177,4.928,2.892,6.461c3.067,1.533,6.166,0.413,7.581-1.36
			c0.946-1.208,2.007-4.719,2.007-4.719s0.207-0.442,0.621-0.414v-1.977H37.06V21.89z M32.635,29.885
			c-3.452,0.592-5.193-0.619-5.93-3.274c0-0.028-1.151-4.484,3.627-5.015c4.633-0.502,6.286,0.854,6.433,2.3
			C36.914,25.342,36.087,29.325,32.635,29.885z"/>
		<path id="XMLID_44_" fill="#3A3A3A" d="M38.625,21.89v1.977c0.414-0.06,0.619,0.415,0.619,0.415s1.063,3.509,2.006,4.72
			c1.417,1.771,4.518,2.89,7.585,1.357c3.067-1.536,2.743-5.783,2.891-6.462c0.146-0.676,2.3-0.972,2.3-0.972v-1.297
			c-2.804,0.235-3.185-0.826-8.201-0.826c-2.862,0-5.578,1.061-5.578,1.061h-1.621V21.89z M40.483,23.896
			c0.145-1.414,1.828-2.802,6.431-2.3c4.78,0.531,3.66,4.985,3.629,5.015c-0.738,2.655-2.479,3.835-5.93,3.274
			S40.336,25.313,40.483,23.896z"/>
	</g>
</g>
</svg>
