<?xml version="1.0" encoding="utf-8"?>
<!-- Generator: Adobe Illustrator 16.0.0, SVG Export Plug-In . SVG Version: 6.00 Build 0)  -->
<!DOCTYPE svg PUBLIC "-//W3C//DTD SVG 1.1//EN" "http://www.w3.org/Graphics/SVG/1.1/DTD/svg11.dtd">
<svg version="1.1" id="Camada_1" xmlns="http://www.w3.org/2000/svg" xmlns:xlink="http://www.w3.org/1999/xlink" x="0px" y="0px"
	 width="30px" height="30px" viewBox="92 10 30 30" enable-background="new 92 10 30 30" xml:space="preserve">
<g id="XMLID_180_">
	<path id="XMLID_295_" fill="#009F95" d="M117.721,22.02c-2.213-3.25-6.644-4.09-9.894-1.875c-1.431,0.975-2.577,2.503-3.018,4.047
		c-0.562,1.963-2.557,11.308-2.557,11.308s11.987-2.491,13.593-3.585C119.096,29.7,119.936,25.27,117.721,22.02z M109.839,27.389
		c-0.898-1.319-0.558-3.118,0.763-4.017c1.319-0.899,3.119-0.558,4.018,0.762c0.899,1.32,0.558,3.118-0.763,4.018
		C112.537,29.05,110.738,28.71,109.839,27.389z"/>
	<path id="XMLID_276_" fill="#006B94" d="M95.091,22.456c0.063,0.538,0.481,2.274,1.288,3.798c2.088,3.944,5.849,9.236,5.849,9.236
		s4.712-7.17,5.986-9.729c0.563-1.13,1.224-3.251,1.021-4.971c-0.461-3.906-3.999-6.699-7.905-6.239
		C97.425,15.011,94.632,18.55,95.091,22.456z M99.236,21.49c-0.187-1.587,0.948-3.023,2.533-3.21
		c1.586-0.187,3.023,0.947,3.21,2.534c0.188,1.585-0.947,3.023-2.533,3.209C100.86,24.21,99.424,23.075,99.236,21.49z"/>
</g>
</svg>
