<?xml version="1.0" encoding="utf-8"?>
<!-- Generator: Adobe Illustrator 22.0.0, SVG Export Plug-In . SVG Version: 6.00 Build 0)  -->
<svg version="1.1" id="Layer_1" xmlns="http://www.w3.org/2000/svg" xmlns:xlink="http://www.w3.org/1999/xlink" x="0px" y="0px"
	 viewBox="0 0 70 70" style="enable-background:new 0 0 70 70;" xml:space="preserve">
<style type="text/css">
	.st0{fill:url(#SVGID_1_);}
	.st1{fill:url(#SVGID_2_);}
	.st2{fill:url(#SVGID_3_);}
</style>
<g>
	<radialGradient id="SVGID_1_" cx="21.3842" cy="72.1292" r="74.9205" gradientUnits="userSpaceOnUse">
		<stop  offset="0.2194" style="stop-color:#E5E5E5"/>
		<stop  offset="0.8827" style="stop-color:#FCFCFC"/>
	</radialGradient>
	<path class="st0" d="M35.1,0.2C16,0.2,0.5,15.7,0.5,34.8c0,6.5,1.8,12.5,4.9,17.7L0.9,70.2l17.4-5c5,2.8,10.7,4.3,16.8,4.3
		c19.1,0,34.7-15.5,34.7-34.7C69.8,15.7,54.3,0.2,35.1,0.2z"/>
	<radialGradient id="SVGID_2_" cx="17.6881" cy="71.6533" r="70.6174" gradientUnits="userSpaceOnUse">
		<stop  offset="0.1786" style="stop-color:#38B449"/>
		<stop  offset="0.7602" style="stop-color:#56C765"/>
	</radialGradient>
	<path class="st1" d="M35.5,6.2C19.6,6.2,6.7,19.1,6.7,35c0,6.1,1.9,11.7,5.1,16.4L9.3,61.5l9.9-2.9c4.6,3.2,10.3,5.1,16.3,5.1
		c15.9,0,28.8-12.9,28.8-28.8C64.3,19.1,51.4,6.2,35.5,6.2z"/>
	<radialGradient id="SVGID_3_" cx="22.175" cy="56.4355" r="33.5157" gradientUnits="userSpaceOnUse">
		<stop  offset="0.2194" style="stop-color:#E5E5E5"/>
		<stop  offset="0.8827" style="stop-color:#FFFFFF"/>
	</radialGradient>
	<path class="st2" d="M26.4,32.1c0.4-0.5,0.8-0.9,1.2-1.4c0.7-0.8,1.7-1.5,1.7-2.7c0-1.1-0.3-2.2-0.7-3.1c-0.2-0.6-0.5-1.3-0.7-1.9
		c-0.4-1.2-1-2.8-1.6-3.4c-0.9-0.9-2.3-1.1-3.5-0.5c0,0-6.8,3.3-4.7,9.8c0,0,4.1,18.4,24.5,22.2c0,0,7.3,1,9.3-3.4
		c0.4-1,0.7-2.3,0.6-3.4c-0.1-1-0.8-1.7-1.6-2.2c-1.1-0.6-2-1.2-3.3-1.8c-1.1-0.5-2.3-1.3-3.5-1c-0.9,0.2-1.5,1.1-2.1,1.7
		c-0.8,0.8-1.6,1.7-2.4,2.5C39.4,43.6,29.1,39.8,26.4,32.1z"/>
</g>
</svg>
