<?xml version="1.0" encoding="utf-8"?>
<!-- Generator: Adobe Illustrator 16.0.0, SVG Export Plug-In . SVG Version: 6.00 Build 0)  -->
<!DOCTYPE svg PUBLIC "-//W3C//DTD SVG 1.1//EN" "http://www.w3.org/Graphics/SVG/1.1/DTD/svg11.dtd">
<svg version="1.1" id="Camada_1" xmlns="http://www.w3.org/2000/svg" xmlns:xlink="http://www.w3.org/1999/xlink" x="0px" y="0px"
	 width="161px" height="40px" viewBox="0 0 161 40" enable-background="new 0 0 161 40" xml:space="preserve">
<g>
	<g>
		<path id="XMLID_27_" fill="#FFFFFF" d="M41.589,35.015c-1.029,0-1.926-0.107-2.69-0.323v-3.793c0.784,0.195,1.5,0.294,2.146,0.294
			c1,0,1.715-0.312,2.147-0.934c0.431-0.622,0.647-1.596,0.647-2.919V7.197h4.558v20.113c0,2.51-0.573,4.421-1.72,5.734
			C45.53,34.358,43.833,35.015,41.589,35.015z"/>
		<path id="XMLID_25_" fill="#FFFFFF" d="M62.758,28.692l-5.175-16.863h-0.132c0.186,3.431,0.279,5.719,0.279,6.865v9.998h-4.073
			V7.197h6.205l5.086,16.438h0.089l5.396-16.438h6.205v21.495h-4.249V18.519c0-0.48,0.007-1.033,0.021-1.661
			s0.082-2.294,0.199-4.999h-0.132l-5.542,16.834H62.758z"/>
	</g>
	<g id="XMLID_23_">
		<path fill="#FFFFFF" d="M84.597,8.558c-0.832,0-1.49,0.277-1.972,0.832c-0.482,0.555-0.723,1.314-0.723,2.277
			c0,0.991,0.232,1.758,0.697,2.3c0.465,0.54,1.128,0.811,1.988,0.811c0.528,0,1.131-0.095,1.809-0.285v0.772
			c-0.525,0.196-1.174,0.295-1.943,0.295c-1.116,0-1.978-0.338-2.584-1.015c-0.606-0.679-0.91-1.641-0.91-2.889
			c0-0.779,0.146-1.465,0.438-2.052c0.292-0.588,0.713-1.039,1.265-1.357S83.86,7.77,84.607,7.77c0.795,0,1.488,0.146,2.083,0.436
			l-0.373,0.757C85.744,8.693,85.171,8.558,84.597,8.558z"/>
		<path fill="#FFFFFF" d="M92.822,12.61c0,0.927-0.232,1.649-0.699,2.17c-0.467,0.52-1.111,0.779-1.934,0.779
			c-0.508,0-0.958-0.119-1.353-0.357s-0.698-0.581-0.912-1.026c-0.215-0.445-0.321-0.967-0.321-1.565
			c0-0.926,0.231-1.646,0.694-2.163c0.463-0.518,1.106-0.775,1.928-0.775c0.795,0,1.427,0.264,1.896,0.793
			C92.588,10.993,92.822,11.709,92.822,12.61z M88.495,12.61c0,0.727,0.146,1.279,0.436,1.658c0.29,0.381,0.717,0.571,1.28,0.571
			c0.563,0,0.99-0.189,1.282-0.568c0.292-0.377,0.438-0.932,0.438-1.661c0-0.722-0.146-1.271-0.438-1.645
			c-0.292-0.375-0.723-0.563-1.293-0.563c-0.563,0-0.988,0.186-1.275,0.555C88.638,11.327,88.495,11.879,88.495,12.61z"/>
		<path fill="#FFFFFF" d="M98.218,15.456v-3.675c0-0.463-0.106-0.809-0.316-1.037c-0.211-0.228-0.541-0.342-0.989-0.342
			c-0.595,0-1.03,0.161-1.307,0.481c-0.276,0.322-0.414,0.853-0.414,1.592v2.98H94.33v-5.68h0.699l0.141,0.776h0.041
			c0.177-0.28,0.424-0.496,0.741-0.65c0.318-0.154,0.673-0.23,1.063-0.23c0.685,0,1.199,0.165,1.545,0.495
			c0.346,0.329,0.519,0.858,0.519,1.584v3.705H98.218z"/>
		<path fill="#FFFFFF" d="M104.51,13.905c0,0.53-0.197,0.937-0.591,1.225c-0.394,0.286-0.946,0.43-1.659,0.43
			c-0.753,0-1.34-0.119-1.762-0.357v-0.799c0.273,0.139,0.565,0.247,0.879,0.327c0.313,0.08,0.614,0.119,0.904,0.119
			c0.449,0,0.795-0.071,1.037-0.215c0.241-0.144,0.362-0.361,0.362-0.656c0-0.221-0.097-0.41-0.288-0.566
			c-0.191-0.158-0.565-0.344-1.121-0.558c-0.529-0.197-0.905-0.369-1.128-0.516s-0.389-0.313-0.497-0.501
			c-0.109-0.186-0.164-0.409-0.164-0.668c0-0.463,0.188-0.829,0.565-1.096c0.377-0.27,0.893-0.402,1.549-0.402
			c0.612,0,1.21,0.125,1.794,0.373l-0.306,0.699c-0.57-0.234-1.087-0.353-1.55-0.353c-0.408,0-0.715,0.064-0.923,0.191
			c-0.207,0.128-0.311,0.306-0.311,0.53c0,0.151,0.038,0.28,0.116,0.388s0.203,0.209,0.376,0.307
			c0.173,0.096,0.505,0.236,0.995,0.42c0.674,0.245,1.129,0.492,1.366,0.74C104.392,13.218,104.51,13.529,104.51,13.905z"/>
		<path fill="#FFFFFF" d="M106.718,9.776v3.684c0,0.463,0.105,0.809,0.316,1.037c0.211,0.228,0.54,0.343,0.99,0.343
			c0.594,0,1.028-0.163,1.304-0.488c0.274-0.324,0.411-0.855,0.411-1.59V9.776h0.86v5.68h-0.71l-0.124-0.762h-0.046
			c-0.177,0.28-0.422,0.493-0.734,0.644c-0.313,0.147-0.67,0.222-1.07,0.222c-0.691,0-1.208-0.164-1.552-0.492
			c-0.345-0.328-0.516-0.854-0.516-1.575V9.776H106.718z"/>
		<path fill="#FFFFFF" d="M113.285,15.456h-0.86V7.392h0.86V15.456z"/>
		<path fill="#FFFFFF" d="M116.944,14.85c0.152,0,0.299-0.012,0.44-0.033c0.143-0.023,0.254-0.047,0.338-0.07v0.658
			c-0.094,0.045-0.231,0.083-0.413,0.111c-0.182,0.029-0.345,0.044-0.49,0.044c-1.098,0-1.647-0.578-1.647-1.736v-3.379h-0.814
			v-0.415l0.814-0.357l0.363-1.213h0.497v1.317h1.647v0.668h-1.647v3.343c0,0.342,0.081,0.605,0.244,0.788
			C116.438,14.758,116.661,14.85,116.944,14.85z"/>
		<path fill="#FFFFFF" d="M123.76,12.61c0,0.927-0.233,1.649-0.7,2.17c-0.466,0.52-1.11,0.779-1.933,0.779
			c-0.508,0-0.959-0.119-1.354-0.357c-0.394-0.238-0.697-0.581-0.911-1.026c-0.215-0.445-0.322-0.967-0.322-1.565
			c0-0.926,0.231-1.646,0.695-2.163c0.462-0.518,1.105-0.775,1.928-0.775c0.795,0,1.427,0.264,1.895,0.793
			C123.525,10.993,123.76,11.709,123.76,12.61z M119.432,12.61c0,0.727,0.146,1.279,0.436,1.658c0.29,0.381,0.717,0.571,1.28,0.571
			s0.991-0.189,1.283-0.568c0.292-0.377,0.438-0.932,0.438-1.661c0-0.722-0.146-1.271-0.438-1.645
			c-0.292-0.375-0.724-0.563-1.293-0.563c-0.563,0-0.989,0.186-1.276,0.555C119.575,11.327,119.432,11.879,119.432,12.61z
			 M120.428,8.895c0.165-0.215,0.344-0.473,0.535-0.778c0.192-0.304,0.344-0.567,0.454-0.793h1.047v0.109
			c-0.151,0.225-0.378,0.501-0.679,0.829s-0.562,0.582-0.783,0.763h-0.574V8.895z"/>
		<path fill="#FFFFFF" d="M127.859,9.672c0.252,0,0.479,0.021,0.679,0.063l-0.119,0.798c-0.235-0.052-0.441-0.078-0.622-0.078
			c-0.459,0-0.853,0.188-1.179,0.561c-0.327,0.373-0.489,0.838-0.489,1.394v3.048h-0.861v-5.68h0.711l0.098,1.051h0.042
			c0.211-0.368,0.464-0.654,0.762-0.854C127.177,9.771,127.504,9.672,127.859,9.672z"/>
		<path fill="#FFFFFF" d="M129.528,8.235c0-0.196,0.048-0.341,0.145-0.433c0.098-0.092,0.218-0.137,0.363-0.137
			c0.138,0,0.258,0.047,0.358,0.14c0.1,0.093,0.149,0.236,0.149,0.43c0,0.194-0.05,0.339-0.149,0.433
			c-0.101,0.096-0.221,0.145-0.358,0.145c-0.146,0-0.266-0.049-0.363-0.145C129.576,8.574,129.528,8.43,129.528,8.235z
			 M130.462,15.456h-0.861v-5.68h0.861V15.456z"/>
		<path fill="#FFFFFF" d="M137.188,12.61c0,0.927-0.232,1.649-0.699,2.17c-0.467,0.52-1.111,0.779-1.934,0.779
			c-0.508,0-0.958-0.119-1.353-0.357s-0.698-0.581-0.912-1.026c-0.215-0.445-0.321-0.967-0.321-1.565
			c0-0.926,0.231-1.646,0.694-2.163c0.463-0.518,1.105-0.775,1.928-0.775c0.795,0,1.427,0.264,1.895,0.793
			C136.954,10.993,137.188,11.709,137.188,12.61z M132.861,12.61c0,0.727,0.145,1.279,0.436,1.658
			c0.289,0.381,0.717,0.571,1.279,0.571c0.563,0,0.991-0.189,1.283-0.568c0.292-0.377,0.438-0.932,0.438-1.661
			c0-0.722-0.146-1.271-0.438-1.645c-0.292-0.375-0.723-0.563-1.293-0.563c-0.563,0-0.988,0.186-1.275,0.555
			C133.004,11.327,132.861,11.879,132.861,12.61z"/>
		<path fill="#FFFFFF" d="M142.361,13.905c0,0.53-0.197,0.937-0.591,1.225c-0.394,0.286-0.946,0.43-1.659,0.43
			c-0.752,0-1.34-0.119-1.762-0.357v-0.799c0.273,0.139,0.565,0.247,0.879,0.327c0.313,0.08,0.614,0.119,0.904,0.119
			c0.449,0,0.795-0.071,1.037-0.215c0.241-0.144,0.362-0.361,0.362-0.656c0-0.221-0.097-0.41-0.288-0.566
			c-0.191-0.158-0.565-0.344-1.121-0.558c-0.529-0.197-0.905-0.369-1.128-0.516s-0.389-0.313-0.497-0.501
			c-0.109-0.186-0.164-0.409-0.164-0.668c0-0.463,0.188-0.829,0.565-1.096c0.377-0.27,0.893-0.402,1.549-0.402
			c0.612,0,1.21,0.125,1.794,0.373l-0.306,0.699c-0.57-0.234-1.087-0.353-1.55-0.353c-0.408,0-0.715,0.064-0.923,0.191
			c-0.207,0.128-0.311,0.306-0.311,0.53c0,0.151,0.038,0.28,0.116,0.388s0.203,0.209,0.376,0.307
			c0.173,0.096,0.505,0.236,0.995,0.42c0.674,0.245,1.129,0.492,1.366,0.74C142.243,13.218,142.361,13.529,142.361,13.905z"/>
		<path fill="#FFFFFF" d="M84.597,21.295c-0.832,0-1.49,0.277-1.972,0.832c-0.482,0.555-0.723,1.314-0.723,2.278
			c0,0.992,0.232,1.759,0.697,2.299c0.465,0.54,1.128,0.812,1.988,0.812c0.528,0,1.131-0.096,1.809-0.286v0.772
			c-0.525,0.197-1.174,0.296-1.943,0.296c-1.116,0-1.978-0.339-2.584-1.016c-0.606-0.677-0.91-1.64-0.91-2.887
			c0-0.781,0.146-1.466,0.438-2.054c0.292-0.586,0.713-1.039,1.265-1.357s1.199-0.477,1.946-0.477c0.795,0,1.488,0.146,2.083,0.436
			L86.317,21.7C85.744,21.43,85.171,21.295,84.597,21.295z"/>
		<path fill="#FFFFFF" d="M92.822,25.35c0,0.925-0.232,1.647-0.699,2.168s-1.111,0.78-1.934,0.78c-0.508,0-0.958-0.118-1.353-0.358
			c-0.395-0.238-0.698-0.579-0.912-1.025c-0.215-0.445-0.321-0.968-0.321-1.564c0-0.927,0.231-1.648,0.694-2.165
			c0.463-0.516,1.106-0.774,1.928-0.774c0.795,0,1.427,0.265,1.896,0.793C92.588,23.731,92.822,24.447,92.822,25.35z M88.495,25.35
			c0,0.725,0.146,1.277,0.436,1.658c0.29,0.38,0.717,0.568,1.28,0.568c0.563,0,0.99-0.188,1.282-0.565
			c0.292-0.38,0.438-0.933,0.438-1.661c0-0.724-0.146-1.271-0.438-1.647c-0.292-0.374-0.723-0.562-1.293-0.562
			c-0.563,0-0.988,0.185-1.275,0.555S88.495,24.616,88.495,25.35z"/>
		<path fill="#FFFFFF" d="M101.571,28.193v-3.695c0-0.453-0.098-0.791-0.29-1.018c-0.194-0.227-0.495-0.34-0.902-0.34
			c-0.535,0-0.932,0.154-1.187,0.462c-0.256,0.308-0.384,0.781-0.384,1.42v3.171h-0.861v-3.695c0-0.453-0.096-0.791-0.289-1.018
			c-0.194-0.227-0.496-0.34-0.908-0.34c-0.538,0-0.934,0.161-1.184,0.485c-0.251,0.322-0.375,0.852-0.375,1.588v2.979H94.33v-5.68
			h0.699l0.141,0.778h0.041c0.163-0.277,0.392-0.494,0.688-0.649c0.295-0.155,0.626-0.232,0.992-0.232
			c0.888,0,1.469,0.321,1.741,0.964h0.042c0.169-0.297,0.414-0.532,0.736-0.705c0.32-0.173,0.688-0.259,1.098-0.259
			c0.643,0,1.124,0.164,1.443,0.495c0.32,0.33,0.48,0.856,0.48,1.583v3.705H101.571z"/>
		<path fill="#FFFFFF" d="M106.848,28.298c-0.37,0-0.708-0.067-1.014-0.204s-0.563-0.348-0.77-0.631h-0.063
			c0.042,0.332,0.063,0.646,0.063,0.944v2.336h-0.86v-8.229h0.699l0.119,0.778h0.042c0.221-0.313,0.479-0.536,0.772-0.676
			c0.294-0.138,0.631-0.206,1.011-0.206c0.753,0,1.335,0.257,1.744,0.772c0.409,0.515,0.614,1.235,0.614,2.167
			s-0.208,1.656-0.625,2.173C108.165,28.04,107.587,28.298,106.848,28.298z M106.723,23.141c-0.58,0-1,0.161-1.26,0.482
			c-0.259,0.32-0.392,0.832-0.398,1.534v0.192c0,0.797,0.133,1.369,0.398,1.712c0.267,0.344,0.693,0.515,1.281,0.515
			c0.49,0,0.875-0.197,1.152-0.595c0.278-0.398,0.418-0.945,0.418-1.644c0-0.707-0.14-1.252-0.418-1.63
			C107.619,23.329,107.228,23.141,106.723,23.141z"/>
		<path fill="#FFFFFF" d="M114.202,28.193l-0.17-0.809h-0.042c-0.283,0.357-0.566,0.599-0.848,0.724
			c-0.282,0.126-0.633,0.189-1.055,0.189c-0.563,0-1.005-0.145-1.324-0.436c-0.32-0.29-0.479-0.702-0.479-1.238
			c0-1.147,0.918-1.748,2.752-1.804l0.965-0.031v-0.354c0-0.445-0.097-0.773-0.288-0.987c-0.192-0.212-0.499-0.317-0.92-0.317
			c-0.474,0-1.009,0.145-1.607,0.436l-0.264-0.659c0.28-0.151,0.586-0.271,0.92-0.357c0.334-0.086,0.668-0.129,1.003-0.129
			c0.677,0,1.179,0.149,1.506,0.449c0.326,0.301,0.489,0.783,0.489,1.446v3.877H114.202z M112.259,27.588
			c0.536,0,0.956-0.146,1.262-0.441c0.307-0.293,0.459-0.704,0.459-1.232V25.4l-0.86,0.036c-0.684,0.024-1.178,0.131-1.479,0.319
			c-0.303,0.188-0.454,0.48-0.454,0.878c0,0.312,0.095,0.548,0.283,0.711C111.657,27.507,111.921,27.588,112.259,27.588z"/>
		<path fill="#FFFFFF" d="M119.204,22.41c0.252,0,0.479,0.021,0.679,0.063l-0.119,0.797c-0.235-0.051-0.442-0.076-0.622-0.076
			c-0.46,0-0.853,0.186-1.179,0.559c-0.327,0.373-0.49,0.838-0.49,1.394v3.048h-0.86v-5.68h0.711l0.098,1.053h0.041
			c0.212-0.37,0.465-0.655,0.763-0.855C118.521,22.511,118.849,22.41,119.204,22.41z"/>
		<path fill="#FFFFFF" d="M122.78,27.588c0.151,0,0.299-0.012,0.44-0.034s0.254-0.045,0.337-0.07v0.659
			c-0.094,0.045-0.23,0.082-0.412,0.11c-0.182,0.029-0.345,0.045-0.49,0.045c-1.099,0-1.647-0.579-1.647-1.736v-3.379h-0.814v-0.415
			l0.814-0.357l0.362-1.214h0.497v1.317h1.648v0.669h-1.648v3.343c0,0.341,0.082,0.604,0.244,0.787
			C122.273,27.497,122.496,27.588,122.78,27.588z"/>
		<path fill="#FFFFFF" d="M124.621,20.975c0-0.198,0.048-0.342,0.145-0.434c0.097-0.091,0.218-0.138,0.362-0.138
			c0.139,0,0.258,0.047,0.358,0.142c0.1,0.093,0.15,0.236,0.15,0.43c0,0.192-0.051,0.338-0.15,0.433
			c-0.101,0.094-0.22,0.142-0.358,0.142c-0.145,0-0.266-0.048-0.362-0.142C124.669,21.313,124.621,21.167,124.621,20.975z
			 M125.554,28.193h-0.861v-5.68h0.861V28.193z"/>
		<path fill="#FFFFFF" d="M128.238,28.193h-0.861v-8.064h0.861V28.193z"/>
		<path fill="#FFFFFF" d="M133.95,28.193v-3.675c0-0.462-0.106-0.808-0.316-1.035c-0.211-0.228-0.541-0.343-0.99-0.343
			c-0.598,0-1.034,0.163-1.309,0.488c-0.274,0.323-0.411,0.856-0.411,1.596v2.969h-0.861v-8.064h0.861v2.441
			c0,0.295-0.015,0.537-0.043,0.731h0.053c0.169-0.272,0.41-0.487,0.723-0.646c0.313-0.156,0.67-0.234,1.07-0.234
			c0.695,0,1.216,0.164,1.563,0.495c0.348,0.329,0.521,0.854,0.521,1.572v3.705H133.95z"/>
		<path fill="#FFFFFF" d="M140.07,28.193l-0.171-0.809h-0.042c-0.283,0.357-0.565,0.599-0.847,0.724
			c-0.282,0.126-0.634,0.189-1.056,0.189c-0.563,0-1.004-0.145-1.324-0.436c-0.319-0.29-0.479-0.702-0.479-1.238
			c0-1.147,0.917-1.748,2.752-1.804l0.964-0.031v-0.354c0-0.445-0.096-0.773-0.287-0.987c-0.192-0.212-0.499-0.317-0.921-0.317
			c-0.473,0-1.008,0.145-1.606,0.436l-0.265-0.659c0.28-0.151,0.587-0.271,0.92-0.357c0.334-0.086,0.668-0.129,1.004-0.129
			c0.677,0,1.179,0.149,1.506,0.449c0.326,0.301,0.489,0.783,0.489,1.446v3.877H140.07z M138.127,27.588
			c0.535,0,0.956-0.146,1.262-0.441c0.307-0.293,0.459-0.704,0.459-1.232V25.4l-0.86,0.036c-0.685,0.024-1.178,0.131-1.479,0.319
			c-0.303,0.188-0.454,0.48-0.454,0.878c0,0.312,0.095,0.548,0.282,0.711C137.525,27.507,137.788,27.588,138.127,27.588z"/>
		<path fill="#FFFFFF" d="M146.348,27.433h-0.047c-0.396,0.577-0.991,0.865-1.783,0.865c-0.742,0-1.32-0.254-1.733-0.762
			c-0.413-0.509-0.619-1.23-0.619-2.167s0.208-1.664,0.622-2.182c0.414-0.519,0.992-0.777,1.73-0.777
			c0.771,0,1.361,0.279,1.773,0.84h0.066l-0.036-0.41l-0.021-0.399v-2.312h0.86v8.064h-0.699L146.348,27.433z M144.627,27.576
			c0.587,0,1.014-0.159,1.277-0.479c0.265-0.319,0.396-0.835,0.396-1.547v-0.182c0-0.806-0.134-1.379-0.401-1.724
			c-0.268-0.344-0.695-0.515-1.282-0.515c-0.505,0-0.892,0.195-1.159,0.588c-0.268,0.392-0.401,0.945-0.401,1.661
			c0,0.726,0.133,1.273,0.399,1.644C143.722,27.393,144.112,27.576,144.627,27.576z"/>
		<path fill="#FFFFFF" d="M153.889,25.35c0,0.925-0.233,1.647-0.7,2.168c-0.466,0.521-1.11,0.78-1.933,0.78
			c-0.508,0-0.959-0.118-1.354-0.358c-0.394-0.238-0.697-0.579-0.911-1.025c-0.215-0.445-0.322-0.968-0.322-1.564
			c0-0.927,0.231-1.648,0.695-2.165c0.462-0.516,1.105-0.774,1.928-0.774c0.795,0,1.427,0.265,1.895,0.793
			S153.889,24.447,153.889,25.35z M149.561,25.35c0,0.725,0.146,1.277,0.436,1.658c0.29,0.38,0.717,0.568,1.28,0.568
			s0.991-0.188,1.283-0.565c0.292-0.38,0.438-0.933,0.438-1.661c0-0.724-0.146-1.271-0.438-1.647
			c-0.292-0.374-0.724-0.562-1.293-0.562c-0.563,0-0.989,0.185-1.276,0.555C149.704,24.065,149.561,24.616,149.561,25.35z"/>
		<path fill="#FFFFFF" d="M159.062,26.645c0,0.528-0.197,0.937-0.591,1.223c-0.395,0.287-0.947,0.431-1.659,0.431
			c-0.753,0-1.34-0.118-1.762-0.358v-0.797c0.272,0.138,0.565,0.247,0.878,0.326c0.313,0.079,0.614,0.119,0.905,0.119
			c0.449,0,0.795-0.072,1.036-0.216c0.242-0.143,0.362-0.361,0.362-0.655c0-0.221-0.096-0.411-0.287-0.567
			c-0.191-0.157-0.565-0.343-1.122-0.558c-0.528-0.196-0.904-0.369-1.127-0.516c-0.224-0.146-0.389-0.313-0.498-0.499
			c-0.108-0.188-0.163-0.41-0.163-0.67c0-0.463,0.188-0.827,0.565-1.097c0.376-0.267,0.893-0.4,1.549-0.4
			c0.612,0,1.21,0.123,1.794,0.373l-0.307,0.7c-0.569-0.235-1.087-0.353-1.549-0.353c-0.408,0-0.715,0.063-0.923,0.191
			s-0.311,0.304-0.311,0.528c0,0.152,0.038,0.282,0.116,0.39c0.077,0.107,0.203,0.209,0.376,0.305
			c0.173,0.097,0.504,0.236,0.995,0.42c0.674,0.245,1.129,0.493,1.365,0.741C158.943,25.955,159.062,26.269,159.062,26.645z"/>
	</g>
	<g id="XMLID_1_">
		<path id="XMLID_18_" fill="#009F95" d="M30.757,14.538c-2.814-4.13-8.442-5.197-12.572-2.384
			c-1.818,1.239-3.274,3.181-3.835,5.143c-0.713,2.494-3.248,14.367-3.248,14.367s15.229-3.162,17.272-4.555
			C32.503,24.297,33.57,18.668,30.757,14.538z M20.741,21.361c-1.143-1.678-0.709-3.963,0.968-5.104
			c1.677-1.143,3.963-0.71,5.105,0.968c1.143,1.676,0.709,3.962-0.968,5.104S21.884,23.038,20.741,21.361z"/>
		<g id="XMLID_11_">
			<circle id="XMLID_17_" fill="none" cx="23.778" cy="19.293" r="3.674"/>
			<path id="XMLID_14_" fill="none" d="M30.757,14.538c-2.328-3.417-6.582-4.729-10.321-3.489c0.254,0.716,0.431,1.47,0.496,2.261
				c0.18,2.192-0.773,4.857-1.554,6.266c-1.757,3.174-8.13,11.992-8.187,12.07c1.187-0.248,15.227-3.203,17.183-4.536
				C32.503,24.297,33.57,18.668,30.757,14.538z M25.846,22.329c-1.677,1.143-3.962,0.709-5.105-0.968
				c-1.143-1.678-0.709-3.963,0.968-5.104c1.677-1.143,3.963-0.71,5.105,0.968C27.957,18.9,27.523,21.187,25.846,22.329z"/>
			<path id="XMLID_13_" fill="none" d="M11.102,31.664c0,0,0.035-0.007,0.085-0.018c-0.003-0.004-0.023-0.035-0.062-0.092
				C11.11,31.623,11.102,31.664,11.102,31.664z"/>
		</g>
		<path id="XMLID_8_" fill="#FFFFFF" d="M2.002,15.092c0.08,0.684,0.611,2.892,1.635,4.825c2.654,5.014,7.434,11.738,7.434,11.738
			s5.988-9.113,7.606-12.363c0.715-1.435,1.554-4.133,1.296-6.317c-0.585-4.963-5.082-8.512-10.044-7.927
			C4.966,5.633,1.417,10.129,2.002,15.092z M7.268,13.864c-0.237-2.016,1.204-3.841,3.219-4.079c2.015-0.237,3.841,1.204,4.079,3.22
			c0.237,2.015-1.204,3.841-3.219,4.079C9.332,17.32,7.506,15.879,7.268,13.864z"/>
	</g>
</g>
</svg>
